<svg xmlns="http://www.w3.org/2000/svg" xmlns:xlink="http://www.w3.org/1999/xlink" id="Layer_1" x="0" y="0" version="1.1" viewBox="0 0 508 508" xml:space="preserve" style="enable-background:new 0 0 508 508"><circle style="fill:#90dfaa" cx="254" cy="254" r="254"/><path style="fill:#324a5e" d="M410,145.2l-172-68L219.6,124l-46.8-18l-86,218.8c-4,10.4,1.2,21.6,11.2,25.6l200.4,78.8	c10.4,4,21.6-1.2,25.6-11.2l97.2-247.2C425.2,160.4,420.4,149.2,410,145.2z"/><path style="fill:#fff" d="M361.6,77.2H176.8v30.4c0,10.8-8.8,20-20,20h-30.4v235.2c0,10.8,8.8,20,20,20H362	c10.8,0,20-8.8,20-20V97.2C381.6,86.4,372.8,77.2,361.6,77.2z"/><g><path style="fill:#e6e9ee" d="M176.8,77.2l-50.4,50.4h30.4c10.8,0,20-8.8,20-20C176.8,107.6,176.8,77.2,176.8,77.2z"/><rect style="fill:#e6e9ee" width="193.2" height="15.6" x="157.2" y="159.6"/><rect style="fill:#e6e9ee" width="193.2" height="15.6" x="157.2" y="198"/><rect style="fill:#e6e9ee" width="193.2" height="15.6" x="157.2" y="236.8"/><rect style="fill:#e6e9ee" width="193.2" height="15.6" x="157.2" y="275.6"/><rect style="fill:#e6e9ee" width="127.2" height="15.6" x="157.2" y="314.4"/></g></svg>